# 3ds Max Wavefront OBJ Exporter v0.97b - (c)2007 guruware
# File Created: 25.03.2013 12:03:24

#
# object halfBasic01b
#

v  0.0000 -4.0000 -0.0000
v  1.0000 -4.0000 -0.0000
v  1.0000 0.0000 0.0000
v  0.0000 0.0000 0.0000
v  2.0000 -4.0000 -0.0000
v  2.0000 0.0000 0.0000
# 6 vertices

vn 0.0000 -0.0000 1.0000
# 1 vertex normals

vt 0.0005 0.0005 0.5000
vt 0.5000 0.0005 0.5000
vt 0.5000 0.9995 0.5000
vt 0.0005 0.9995 0.5000
vt 0.9995 0.0005 0.5000
vt 0.9995 0.9995 0.5000
# 6 texture coords

g halfBasic01b
s 1
f 1/1/1 2/2/1 3/3/1 4/4/1 
f 2/2/1 5/5/1 6/6/1 3/3/1 
# 2 polygons

