# 3ds Max Wavefront OBJ Exporter v0.97b - (c)2007 guruware
# File Created: 17.03.2013 16:52:54

#
# object rampBasic01b
#

v  0.0000 -8.0000 -0.0000
v  0.0000 -4.0000 -0.0000
v  -4.0000 -4.0000 0.0000
v  -8.0000 -8.0000 0.0000
v  0.0000 0.0000 0.0000
# 5 vertices

vn 0.0000 -0.0000 1.0000
# 1 vertex normals

vt 0.0000 0.0000 0.0000
vt 0.0000 0.5000 0.0000
vt 0.5000 1.0000 0.0000
vt 1.0000 1.0000 0.0000
vt 0.0000 1.0000 0.0000
# 5 texture coords

g rampBasic01b
s 2
f 1/1/1 2/2/1 3/3/1 4/4/1 
f 2/2/1 5/5/1 3/3/1 
# 1 polygons - 1 triangles

