# 3ds Max Wavefront OBJ Exporter v0.97b - (c)2007 guruware
# File Created: 17.03.2013 16:39:46

#
# object wallBasic01b
#

v  0.0000 -8.0000 -0.0000
v  1.0000 -8.0000 -0.0000
v  1.0000 -4.0000 -0.0000
v  0.0000 -4.0000 -0.0000
v  2.0000 -8.0000 -0.0000
v  2.0000 -4.0000 -0.0000
v  1.0000 0.0000 0.0000
v  0.0000 0.0000 0.0000
v  2.0000 0.0000 0.0000
# 9 vertices

vn 0.0000 -0.0000 1.0000
# 1 vertex normals

vt 0.0000 0.0000 0.0000
vt 0.5000 0.0000 0.0000
vt 0.5000 0.5000 0.0000
vt 0.0000 0.5000 0.0000
vt 1.0000 0.0000 0.0000
vt 1.0000 0.5000 0.0000
vt 0.5000 1.0000 0.0000
vt 0.0000 1.0000 0.0000
vt 1.0000 1.0000 0.0000
# 9 texture coords

g wallBasic01b
s 1
f 1/1/1 2/2/1 3/3/1 4/4/1 
f 2/2/1 5/5/1 6/6/1 3/3/1 
f 4/4/1 3/3/1 7/7/1 8/8/1 
f 3/3/1 6/6/1 9/9/1 7/7/1 
# 4 polygons

