# 3ds Max Wavefront OBJ Exporter v0.97b - (c)2007 guruware
# File Created: 17.03.2013 16:46:01

#
# object wallBasic02a
#

v  -0.0000 -8.0000 -0.0000
v  4.0000 -8.0000 -4.0000
v  4.0000 -4.0000 -4.0000
v  0.0000 -4.0000 -0.0000
v  4.0000 0.0000 -4.0000
v  0.0000 0.0000 -0.0000
# 6 vertices

vn 0.7071 -0.0000 0.7071
vn 0.7071 0.0000 0.7071
# 2 vertex normals

vt 0.7071 0.9999 0.0000
vt 0.0000 0.9999 0.0000
vt 0.0000 0.4999 0.0000
vt 0.7071 0.4999 0.0000
vt 0.0000 -0.0001 0.0000
vt 0.7071 -0.0001 0.0000
# 6 texture coords

g wallBasic02a
s 2
f 1/1/1 2/2/1 3/3/1 4/4/1 
f 4/4/1 3/3/1 5/5/1 6/6/2 
# 2 polygons

